<svg xmlns="http://www.w3.org/2000/svg" width="122.4" height="34.8" viewBox="0 0 122.4 34.8">
  <g id="logo" transform="translate(604.367 -720.6)">
    <path id="Path_1365" data-name="Path 1365" d="M-554.8,720.8c9.6,0,16.6,7.3,16.6,17.2v2.1h-27a11.091,11.091,0,0,0,11,9.4,11.625,11.625,0,0,0,9.6-4.9l4.7,3.5a17.482,17.482,0,0,1-14.3,7.1c-9.9,0-17.6-7.4-17.6-17.3A17.006,17.006,0,0,1-554.8,720.8ZM-565,735h20.2a10.336,10.336,0,0,0-10.1-8.5A10.435,10.435,0,0,0-565,735Z" fill="#001632"/>
    <path id="Path_1366" data-name="Path 1366" d="M-575.267,754.6h-6.6V734.7c0-4.8-3.1-8.1-7.8-8.1s-8.1,3.3-8.1,8.3v19.7h-6.6V721.4h6.6V725a12.757,12.757,0,0,1,9.8-4.4,12.292,12.292,0,0,1,12.7,12.7v21.3Z" fill="#001632"/>
    <path id="Path_1367" data-name="Path 1367" d="M-499.767,755.4a17.566,17.566,0,0,1-17.8-17.4,17.482,17.482,0,0,1,17.8-17.3,17.482,17.482,0,0,1,17.8,17.3A17.566,17.566,0,0,1-499.767,755.4Zm0-28.8a11.29,11.29,0,0,0-11.2,11.4,11.313,11.313,0,0,0,11.2,11.5,11.313,11.313,0,0,0,11.2-11.5A11.29,11.29,0,0,0-499.767,726.6Z" fill="#001632"/>
    <path id="Path_1368" data-name="Path 1368" d="M-520.267,727.3c-4.3,0-7.4,3.3-7.4,8.5v18.9h-6.6V721.5h6.5v4.1a8.8,8.8,0,0,1,7.9-4.4h2.3v6.1Z" fill="#001632"/>
  </g>
</svg>
